<?xml version="1.0" encoding="UTF-8" standalone="no"?>
<!DOCTYPE svg PUBLIC "-//W3C//DTD SVG 1.1//EN"
 "http://www.w3.org/Graphics/SVG/1.1/DTD/svg11.dtd">
<!-- Generated by graphviz version 2.26.3 (20100126.1600)
 -->
<!-- Title: PBO Pages: 1 -->
<svg width="540pt" height="250pt"
 viewBox="0.00 0.00 540.00 250.36" xmlns="http://www.w3.org/2000/svg" xmlns:xlink="http://www.w3.org/1999/xlink">
<g id="graph1" class="graph" transform="scale(0.523763 0.523763) rotate(0) translate(4 474)">
<title>PBO</title>
<polygon fill="white" stroke="white" points="-4,5 -4,-474 1028,-474 1028,5 -4,5"/>
<!-- s -->
<g id="node1" class="node"><title>s</title>
<ellipse fill="none" stroke="black" cx="261" cy="-451" rx="144" ry="18.3848"/>
<text text-anchor="middle" x="261" y="-447.4" font-family="Times Roman,serif" font-size="14.00">Find Better Solution</text>
</g>
<!-- fb -->
<g id="node2" class="node"><title>fb</title>
<polygon fill="none" stroke="black" points="261,-376 5.68434e-14,-350 261,-324 522,-350 261,-376"/>
<text text-anchor="middle" x="261" y="-346.4" font-family="Times Roman,serif" font-size="14.00">currentCriteria.findBetterSolution()</text>
</g>
<!-- s&#45;&gt;fb -->
<g id="edge2" class="edge"><title>s&#45;&gt;fb</title>
<path fill="none" stroke="black" d="M261,-432.475C261,-419.612 261,-402.046 261,-386.431"/>
<polygon fill="black" stroke="black" points="264.5,-386.014 261,-376.014 257.5,-386.014 264.5,-386.014"/>
</g>
<!-- inc -->
<g id="node3" class="node"><title>inc</title>
<polygon fill="none" stroke="black" points="405,-252 117,-252 117,-216 405,-216 405,-252"/>
<text text-anchor="middle" x="261" y="-230.4" font-family="Times Roman,serif" font-size="14.00">currentCriteria = nextCriteria</text>
</g>
<!-- fb&#45;&gt;inc -->
<g id="edge4" class="edge"><title>fb&#45;&gt;inc</title>
<path fill="none" stroke="black" d="M261,-323.967C261,-305.567 261,-280.923 261,-262.081"/>
<polygon fill="black" stroke="black" points="264.5,-262.018 261,-252.018 257.5,-262.018 264.5,-262.018"/>
<text text-anchor="middle" x="270.5" y="-284.4" font-family="Times Roman,serif" font-size="14.00">No</text>
</g>
<!-- true -->
<g id="node6" class="node"><title>true</title>
<polygon fill="none" stroke="black" points="851,-368 563,-368 563,-332 851,-332 851,-368"/>
<text text-anchor="middle" x="707" y="-346.4" font-family="Times Roman,serif" font-size="14.00">return true</text>
</g>
<!-- fb&#45;&gt;true -->
<g id="edge10" class="edge"><title>fb&#45;&gt;true</title>
<path fill="none" stroke="black" d="M522.053,-350C532.476,-350 542.784,-350 552.884,-350"/>
<polygon fill="black" stroke="black" points="552.911,-353.5 562.91,-350 552.91,-346.5 552.911,-353.5"/>
<text text-anchor="middle" x="542" y="-355.4" font-family="Times Roman,serif" font-size="14.00">Yes</text>
</g>
<!-- cc -->
<g id="node4" class="node"><title>cc</title>
<polygon fill="none" stroke="black" points="261,-160 83,-134 261,-108 439,-134 261,-160"/>
<text text-anchor="middle" x="261" y="-130.4" font-family="Times Roman,serif" font-size="14.00">currentCriteria == null</text>
</g>
<!-- inc&#45;&gt;cc -->
<g id="edge6" class="edge"><title>inc&#45;&gt;cc</title>
<path fill="none" stroke="black" d="M261,-215.658C261,-203.014 261,-185.781 261,-170.405"/>
<polygon fill="black" stroke="black" points="264.5,-170.135 261,-160.135 257.5,-170.135 264.5,-170.135"/>
</g>
<!-- false -->
<g id="node5" class="node"><title>false</title>
<polygon fill="none" stroke="black" points="405,-36 117,-36 117,-1.77636e-14 405,-3.55271e-15 405,-36"/>
<text text-anchor="middle" x="261" y="-14.4" font-family="Times Roman,serif" font-size="14.00">return false</text>
</g>
<!-- cc&#45;&gt;false -->
<g id="edge8" class="edge"><title>cc&#45;&gt;false</title>
<path fill="none" stroke="black" d="M261,-107.967C261,-89.5665 261,-64.923 261,-46.0807"/>
<polygon fill="black" stroke="black" points="264.5,-46.0176 261,-36.0176 257.5,-46.0176 264.5,-46.0176"/>
<text text-anchor="middle" x="272.5" y="-68.4" font-family="Times Roman,serif" font-size="14.00">Yes</text>
</g>
<!-- uo -->
<g id="node7" class="node"><title>uo</title>
<polygon fill="none" stroke="black" points="1023,-152 735,-152 735,-116 1023,-116 1023,-152"/>
<text text-anchor="middle" x="879" y="-130.4" font-family="Times Roman,serif" font-size="14.00">Update Order</text>
</g>
<!-- cc&#45;&gt;uo -->
<g id="edge12" class="edge"><title>cc&#45;&gt;uo</title>
<path fill="none" stroke="black" d="M439.337,-134C529.619,-134 638.143,-134 724.781,-134"/>
<polygon fill="black" stroke="black" points="724.967,-137.5 734.966,-134 724.966,-130.5 724.967,-137.5"/>
<text text-anchor="middle" x="587" y="-139.4" font-family="Times Roman,serif" font-size="14.00">No</text>
</g>
<!-- uo&#45;&gt;s -->
<g id="edge14" class="edge"><title>uo&#45;&gt;s</title>
<path fill="none" stroke="black" d="M843.621,-152.148C737.458,-206.603 421.769,-368.535 305.035,-428.412"/>
<polygon fill="black" stroke="black" points="303.297,-425.37 295.997,-433.048 306.492,-431.599 303.297,-425.37"/>
</g>
</g>
</svg>
