<?xml version="1.0" encoding="UTF-8" standalone="no"?>
<!DOCTYPE svg PUBLIC "-//W3C//DTD SVG 1.1//EN"
 "http://www.w3.org/Graphics/SVG/1.1/DTD/svg11.dtd">
<!-- Generated by graphviz version 2.26.3 (20100126.1600)
 -->
<!-- Title: PBO Pages: 1 -->
<svg width="492pt" height="540pt"
 viewBox="0.00 0.00 492.44 540.00" xmlns="http://www.w3.org/2000/svg" xmlns:xlink="http://www.w3.org/1999/xlink">
<g id="graph1" class="graph" transform="scale(0.947368 0.947368) rotate(0) translate(4 566)">
<title>PBO</title>
<polygon fill="white" stroke="white" points="-4,5 -4,-566 516.793,-566 516.793,5 -4,5"/>
<!-- s -->
<g id="node1" class="node"><title>s</title>
<ellipse fill="none" stroke="black" cx="152" cy="-543" rx="144" ry="18.3848"/>
<text text-anchor="middle" x="152" y="-539.4" font-family="Times Roman,serif" font-size="14.00">Start</text>
</g>
<!-- hc -->
<g id="node2" class="node"><title>hc</title>
<polygon fill="none" stroke="black" points="296,-468 8,-468 8,-432 296,-432 296,-468"/>
<text text-anchor="middle" x="152" y="-446.4" font-family="Times Roman,serif" font-size="14.00">Encode Hard Constraints</text>
</g>
<!-- s&#45;&gt;hc -->
<g id="edge2" class="edge"><title>s&#45;&gt;hc</title>
<path fill="none" stroke="black" d="M152,-524.18C152,-511.026 152,-493.224 152,-478.357"/>
<polygon fill="black" stroke="black" points="155.5,-478.159 152,-468.159 148.5,-478.159 155.5,-478.159"/>
</g>
<!-- to -->
<g id="node5" class="node"><title>to</title>
<polygon fill="none" stroke="black" points="152,-376 8,-350 152,-324 296,-350 152,-376"/>
<text text-anchor="middle" x="152" y="-346.4" font-family="Times Roman,serif" font-size="14.00">Is Timeout</text>
</g>
<!-- hc&#45;&gt;to -->
<g id="edge4" class="edge"><title>hc&#45;&gt;to</title>
<path fill="none" stroke="black" d="M152,-431.658C152,-419.014 152,-401.781 152,-386.405"/>
<polygon fill="black" stroke="black" points="155.5,-386.135 152,-376.135 148.5,-386.135 155.5,-386.135"/>
</g>
<!-- sol -->
<g id="node3" class="node"><title>sol</title>
<polygon fill="none" stroke="black" points="152,-252 2.84217e-14,-226 152,-200 304,-226 152,-252"/>
<text text-anchor="middle" x="152" y="-222.4" font-family="Times Roman,serif" font-size="14.00">Is there a Solution?</text>
</g>
<!-- m -->
<g id="node4" class="node"><title>m</title>
<polygon fill="none" stroke="black" points="296,-128 8,-128 8,-92 296,-92 296,-128"/>
<text text-anchor="middle" x="152" y="-106.4" font-family="Times Roman,serif" font-size="14.00">m = Solution</text>
</g>
<!-- sol&#45;&gt;m -->
<g id="edge8" class="edge"><title>sol&#45;&gt;m</title>
<path fill="none" stroke="black" d="M152,-199.967C152,-181.567 152,-156.923 152,-138.081"/>
<polygon fill="black" stroke="black" points="155.5,-138.018 152,-128.018 148.5,-138.018 155.5,-138.018"/>
<text text-anchor="middle" x="163.5" y="-160.4" font-family="Times Roman,serif" font-size="14.00">Yes</text>
</g>
<!-- r -->
<g id="node7" class="node"><title>r</title>
<ellipse fill="none" stroke="black" cx="413" cy="-226" rx="72" ry="18.3848"/>
<text text-anchor="middle" x="413" y="-222.4" font-family="Times Roman,serif" font-size="14.00">return m</text>
</g>
<!-- sol&#45;&gt;r -->
<g id="edge14" class="edge"><title>sol&#45;&gt;r</title>
<path fill="none" stroke="black" d="M304.202,-226C313.188,-226 322.032,-226 330.559,-226"/>
<polygon fill="black" stroke="black" points="330.789,-229.5 340.789,-226 330.789,-222.5 330.789,-229.5"/>
<text text-anchor="middle" x="322" y="-231.4" font-family="Times Roman,serif" font-size="14.00">No</text>
</g>
<!-- e -->
<g id="node6" class="node"><title>e</title>
<polygon fill="none" stroke="black" points="296,-36 8,-36 8,-1.77636e-14 296,-3.55271e-15 296,-36"/>
<text text-anchor="middle" x="152" y="-14.4" font-family="Times Roman,serif" font-size="14.00">encode better solution</text>
</g>
<!-- m&#45;&gt;e -->
<g id="edge10" class="edge"><title>m&#45;&gt;e</title>
<path fill="none" stroke="black" d="M152,-91.8238C152,-78.8451 152,-61.1329 152,-46.3112"/>
<polygon fill="black" stroke="black" points="155.5,-46.1384 152,-36.1385 148.5,-46.1385 155.5,-46.1384"/>
</g>
<!-- to&#45;&gt;sol -->
<g id="edge6" class="edge"><title>to&#45;&gt;sol</title>
<path fill="none" stroke="black" d="M152,-323.703C152,-305.865 152,-282.047 152,-262.393"/>
<polygon fill="black" stroke="black" points="155.5,-262.259 152,-252.259 148.5,-262.259 155.5,-262.259"/>
<text text-anchor="middle" x="161.5" y="-284.4" font-family="Times Roman,serif" font-size="14.00">No</text>
</g>
<!-- to&#45;&gt;r -->
<g id="edge12" class="edge"><title>to&#45;&gt;r</title>
<path fill="none" stroke="black" d="M191.924,-331.032C239.818,-308.278 319.827,-270.266 369.327,-246.749"/>
<polygon fill="black" stroke="black" points="370.97,-249.843 378.501,-242.391 367.966,-243.52 370.97,-249.843"/>
<text text-anchor="middle" x="310.5" y="-284.4" font-family="Times Roman,serif" font-size="14.00">Yes</text>
</g>
<!-- e&#45;&gt;to -->
<g id="edge16" class="edge"><title>e&#45;&gt;to</title>
<path fill="none" stroke="black" d="M229.298,-36.0272C353.396,-68.6229 575.299,-144.133 494,-252 463.632,-292.292 332.735,-321.07 241.989,-336.62"/>
<polygon fill="black" stroke="black" points="241.239,-333.197 231.961,-338.313 242.404,-340.099 241.239,-333.197"/>
</g>
</g>
</svg>
